#!OML:ASF F:\VICON\USERDATA\INSTALL\rory3\rory3.ASF
:FULLY-SPECIFIED
:DEGREES
19
root -0.048395711488536886 17.898983427615082 -10.20612458730042 -5.760002982122881 2.8190988406621367 -3.9251067375005224
lfemur -14.224440756299735 -4.2936191195283095 -20.595740541279856
ltibia 23.255337398862146
lfoot -12.566537883575503 -5.2963234010982125
ltoes 2.811901497802911
rfemur -4.734464068104269 2.6546577425330486 23.140354019832976
rtibia 56.34635398812699
rfoot 2.105827064540076 -11.855098251309743
rtoes 9.36379423573935
lowerback 10.291918744620945 0.9161833880404922 2.757621653384833
upperback 0.8344061892093695 1.6335500895954174 1.143270186062456
thorax -4.679967082147117 0.7388934881141116 -0.42773028030186067
lowerneck -16.112108456493043 -3.4336570958766406 -1.5742464100789346
upperneck 21.917757762855263 -4.597797166466042 2.0450544345862496
head 9.813000539821054 -2.107871953037104 0.19602371908928204
lclavicle -2.7971981182627257e-15 -4.160076107114572e-16
lhumerus -34.34455049688695 2.055176629398976 84.6234881323825
lradius 23.2435422040815
lwrist 4.405108285264934
lhand -28.003456396289263 22.181212150481564
lfingers 7.1250199999999975
lthumb -1.3892619925675547 52.15954348984622
rclavicle -2.7971981182627257e-15 -4.160076107114572e-16
rhumerus -27.355941252170513 -11.918767182730209 -82.81835422781626
rradius 22.217539375566
rwrist 9.54322827711541
rhand -19.390157587419782 23.808361781646173
rfingers 7.1250199999999975
rthumb 6.928610171710362 -6.153556490178202
20
root -0.053486680836620004 17.838487252301736 -9.331056217137368 -5.562796645678391 2.617321875400747 -2.003894284267069
lfemur -13.28641284758956 -4.472171544340428 -22.38720308773084
ltibia 26.216722457983995
lfoot -15.754674841558419 -1.6935251417071109
ltoes 5.383939363147615
rfemur -8.347449437376092 1.6442194408674045 19.45957479257034
rtibia 60.16991025177041
rfoot 2.0560470670028774 -9.304046643745735
rtoes 8.630345242188096
lowerback 10.44233029384724 0.8744060829326007 0.6790584860451412
upperback 0.9287596413050238 1.2043921502309476 0.8900240520909777
thorax -4.676651266221561 0.5907044560068656 0.18521279926853407
lowerneck -16.42676767129766 -3.407979915986207 -1.147002069608619
upperneck 21.83202659043795 -4.578507043733999 1.9755009073917038
head 9.86628498126347 -2.095244375914516 0.11925991427483064
lclavicle -2.7971981937090553e-15 -4.160075995117041e-16
lhumerus -32.57166633756072 0.6256461326527207 84.64494235360307
lradius 23.472899456551783
lwrist 5.806443274369968
lhand -27.028677433062047 21.325912611866393
lfingers 7.1250199999999975
lthumb -0.44770028244573457 51.29581485115899
rclavicle -2.7971981937090553e-15 -4.160075995117041e-16
rhumerus -27.629026699384024 -13.034979644130651 -82.90304944591216
rradius 20.53848867644143
rwrist 11.537784327685113
rhand -20.901144323620837 18.8647705482267
rfingers 7.1250199999999975
rthumb 5.469672390632375 -11.275120574400212
21
root 0.10459925015812321 17.76175729555744 0.8881442857394184 -4.369892411688565 0.9164090593318024 0.7988703658291132
lfemur -12.571576606998477 -2.0188396596915696 -24.686256990842537
ltibia 31.91460974452997
lfoot -16.52207777094812 5.68401166690577
ltoes 4.113563043064737
rfemur -12.786860554826433 1.0885682324727064 17.456339220650193
rtibia 66.54117201419815
rfoot -2.5081161768085947 -8.116883159111431
rtoes 11.989500461650909
lowerback 10.626482016187522 1.4465008113607984 -2.161162392169384
upperback 0.7998857277223124 1.407607377579677 0.28920754990835973
thorax -5.1850238711362495 0.7992037715648717 0.8640480949568059
lowerneck -16.875248549924358 -3.3368723709827277 -1.4564187739031913
upperneck 21.07933936090371 -4.434937403666632 1.8960258628673088
head 9.584839073765036 -2.05006843040401 0.34186634734299326
lclavicle -3.3100692740187666e-15 -7.580582476093438e-16
lhumerus -30.598176588067247 -3.5924870515707497 84.98179317624239
lradius 24.273007758195153
lwrist 3.4569404356126365
lhand -27.88809689379723 26.066779375312766
lfingers 7.1250199999999975
lthumb -1.277768444051912 56.04893633585898
rclavicle -3.3100692740187666e-15 -7.580582476093438e-16
rhumerus -27.550075152527018 -19.664075217784497 -81.76432073844492
rradius 20.003804614252456
rwrist 10.081599999307407
rhand -18.407506249387506 20.44707588064111
rfingers 7.1250199999999975
rthumb 7.876908048528515 -9.840817483650229
22
root 0.13040854649432465 17.710394385223093 -3.679888532309006 -3.8881877376569545 0.4837529161285201 1.98788356400919
lfemur -11.21826236273716 -1.779734635780522 -25.767521312272862
ltibia 32.22149935616806
lfoot -19.096019781414185 9.070583806636765
ltoes 2.986670463131215
rfemur -17.714249934387222 0.6844370335966024 15.37942980728258
rtibia 68.77294977526957
rfoot -5.204208177799928 -7.734758898454387
rtoes 10.414767747398363
lowerback 10.832767425056558 1.3480050488114568 -3.651875116585585
upperback 0.8175745159395181 1.0455659630531673 0.08058578614861234
thorax -5.349427940123464 0.6666396391438363 1.3097367821415318
lowerneck -17.20429201848064 -3.2859127432627684 -1.4410202312558456
upperneck 20.653910847662114 -4.35871007475485 2.070105455803792
head 9.467326965096715 -2.0146528813209885 0.4254161555196996
lclavicle -3.732868459985057e-15 -1.0400638255190402e-15
lhumerus -28.655116647065707 -5.684037687839805 85.02308397345067
lradius 24.507485573989392
lwrist 2.9208682579170016
lhand -27.46487797045514 25.866933574005408
lfingers 7.1250199999999975
lthumb -0.8690044664170322 55.840906354144984
rclavicle -3.732868459985057e-15 -1.0400638255190402e-15
rhumerus -28.067787642247655 -21.047627976987854 -82.05909318344297
rradius 19.208226909183693
rwrist 9.110156208218422
rhand -18.160972486941983 20.72942482378771
rfingers 7.1250199999999975
rthumb 8.114717813895577 -9.425657694612985
